<svg width="0" height="0" class="hidden">
   <defs>

      <symbol xmlns="http://www.w3.org/2000/svg" viewBox="0 0 24 24" id="create">
         <path
            d="M21 14v5a2 2 0 0 1-2 2H5a2 2 0 0 1-2-2V5a2 2 0 0 1 2-2h5v2H5v14h14v-5z"></path>
         <path d="M21 7h-4V3h-2v4h-4v2h4v4h2V9h4z"></path>
      </symbol>

      <symbol xmlns="http://www.w3.org/2000/svg" viewBox="0 0 24 24"
         id="notification">
         <path
            d="M6.429 2.413a.75.75 0 0 0-1.13-.986l-1.292 1.48a4.75 4.75 0 0 0-1.17 3.024L2.78 8.65a.75.75 0 1 0 1.5.031l.056-2.718a3.25 3.25 0 0 1 .801-2.069z"></path>
         <path fill-rule="evenodd"
            d="M6.237 7.7a4.214 4.214 0 0 1 4.206-3.95H11V3a1 1 0 1 1 2 0v.75h.557a4.214 4.214 0 0 1 4.206 3.95l.221 3.534a7.376 7.376 0 0 0 1.308 3.754a1.617 1.617 0 0 1-1.135 2.529l-3.407.408V19a2.75 2.75 0 1 1-5.5 0v-1.075l-3.407-.409a1.617 1.617 0 0 1-1.135-2.528a7.377 7.377 0 0 0 1.308-3.754zm4.206-2.45a2.714 2.714 0 0 0-2.709 2.544l-.22 3.534a8.877 8.877 0 0 1-1.574 4.516a.117.117 0 0 0 .082.183l3.737.449c1.489.178 2.993.178 4.482 0l3.737-.449a.117.117 0 0 0 .082-.183a8.876 8.876 0 0 1-1.573-4.516l-.221-3.534a2.714 2.714 0 0 0-2.709-2.544zm1.557 15c-.69 0-1.25-.56-1.25-1.25v-.75h2.5V19c0 .69-.56 1.25-1.25 1.25"
            clip-rule="evenodd"></path>
         <path
            d="M17.643 1.355a.75.75 0 0 0-.072 1.058l1.292 1.48a3.25 3.25 0 0 1 .8 2.07l.057 2.717a.75.75 0 0 0 1.5-.031l-.057-2.718a4.75 4.75 0 0 0-1.17-3.024l-1.292-1.48a.75.75 0 0 0-1.058-.072"></path>
      </symbol>

      <symbol xmlns="http://www.w3.org/2000/svg" viewBox="0 0 24 24"
         id="customize">
         <path
            d="M5 20q-.825 0-1.412-.587T3 18V4q0-.825.588-1.412T5 2h14q.825 0 1.413.588T21 4v5.65q-.475-.225-.975-.363T19 9.076V4H5v9h4.2q.225.675.75 1.175t1.175.7q-.075.5-.1 1.013t.05 1.012q-.9-.175-1.687-.663T8 15H5v3h6.325q.175.55.4 1.05t.55.95zm0-2h6.325zm12.025 3l-.3-1.5q-.3-.125-.563-.262t-.537-.338l-1.45.45l-1-1.7l1.15-1q-.05-.3-.05-.65t.05-.65l-1.15-1l1-1.7l1.45.45q.275-.2.538-.337t.562-.263l.3-1.5h2l.3 1.5q.3.125.563.263t.537.337l1.45-.45l1 1.7l-1.15 1q.05.3.05.65t-.05.65l1.15 1l-1 1.7l-1.45-.45q-.275.2-.537.338t-.563.262l-.3 1.5zm1-3q.825 0 1.413-.587T20.025 16q0-.825-.587-1.412T18.025 14q-.825 0-1.412.588T16.025 16q0 .825.588 1.413t1.412.587"></path>
      </symbol>

      <symbol xmlns="http://www.w3.org/2000/svg" viewBox="0 0 448 512" id="bell">
         <path
            d="M224 0c-17.7 0-32 14.3-32 32V51.2C119 66 64 130.6 64 208v25.4c0 45.4-15.5 89.5-43.8 124.9L5.3 377c-5.8 7.2-6.9 17.1-2.9 25.4S14.8 416 24 416H424c9.2 0 17.6-5.3 21.6-13.6s2.9-18.2-2.9-25.4l-14.9-18.6C399.5 322.9 384 278.8 384 233.4V208c0-77.4-55-142-128-156.8V32c0-17.7-14.3-32-32-32zm0 96c61.9 0 112 50.1 112 112v25.4c0 47.9 13.9 94.6 39.7 134.6H72.3C98.1 328 112 281.3 112 233.4V208c0-61.9 50.1-112 112-112zm64 352H224 160c0 17 6.7 33.3 18.7 45.3s28.3 18.7 45.3 18.7s33.3-6.7 45.3-18.7s18.7-28.3 18.7-45.3z"
            fill='red'></path>
      </symbol>

      <symbol xmlns="http://www.w3.org/2000/svg" viewBox="0 0 24 24" id="hamburger-menu">
         <path fill="none" stroke="currentColor" stroke-linecap="round" stroke-linejoin="round"
            stroke-width="2" d="M5 17h14M5 12h14M5 7h14"></path>
      </symbol>

      <symbol xmlns="http://www.w3.org/2000/svg" viewBox="0 0 384 512" id="close">
         <path
            d="M342.6 150.6c12.5-12.5 12.5-32.8 0-45.3s-32.8-12.5-45.3 0L192 210.7 86.6 105.4c-12.5-12.5-32.8-12.5-45.3 0s-12.5 32.8 0 45.3L146.7 256 41.4 361.4c-12.5 12.5-12.5 32.8 0 45.3s32.8 12.5 45.3 0L192 301.3 297.4 406.6c12.5 12.5 32.8 12.5 45.3 0s12.5-32.8 0-45.3L237.3 256 342.6 150.6z"></path>
      </symbol>

      <symbol xmlns="http://www.w3.org/2000/svg" viewBox="0 0 19 19" id="template">
         <path
            d="M11.5 9.5H17.5M11.5 13.5H17.5M11.5 17.5H17.5M1.5 2.5C1.5 2.23478 1.60536 1.98043 1.79289 1.79289C1.98043 1.60536 2.23478 1.5 2.5 1.5H16.5C16.7652 1.5 17.0196 1.60536 17.2071 1.79289C17.3946 1.98043 17.5 2.23478 17.5 2.5V4.5C17.5 4.76522 17.3946 5.01957 17.2071 5.20711C17.0196 5.39464 16.7652 5.5 16.5 5.5H2.5C2.23478 5.5 1.98043 5.39464 1.79289 5.20711C1.60536 5.01957 1.5 4.76522 1.5 4.5V2.5ZM1.5 10.5C1.5 10.2348 1.60536 9.98043 1.79289 9.79289C1.98043 9.60536 2.23478 9.5 2.5 9.5H6.5C6.76522 9.5 7.01957 9.60536 7.20711 9.79289C7.39464 9.98043 7.5 10.2348 7.5 10.5V16.5C7.5 16.7652 7.39464 17.0196 7.20711 17.2071C7.01957 17.3946 6.76522 17.5 6.5 17.5H2.5C2.23478 17.5 1.98043 17.3946 1.79289 17.2071C1.60536 17.0196 1.5 16.7652 1.5 16.5V10.5Z"
            stroke="white" stroke-width="2" stroke-linecap="round" stroke-linejoin="round"></path>
      </symbol>

      <symbol xmlns="http://www.w3.org/2000/svg" viewBox="0 0 16 16" id="download">
         <path
            d="M8 12L3 7L4.4 5.55L7 8.15V0H9V8.15L11.6 5.55L13 7L8 12ZM2 16C1.45 16 0.979333 15.8043 0.588 15.413C0.196666 15.0217 0.000666667 14.5507 0 14V11H2V14H14V11H16V14C16 14.55 15.8043 15.021 15.413 15.413C15.0217 15.805 14.5507 16.0007 14 16H2Z"
         ></path>
      </symbol>

      <symbol xmlns="http://www.w3.org/2000/svg" viewBox="0 0 448 512" id="instagram">
         <path
            d="M194.4 211.7a53.3 53.3 0 1 0 59.3 88.7 53.3 53.3 0 1 0 -59.3-88.7zm142.3-68.4c-5.2-5.2-11.5-9.3-18.4-12c-18.1-7.1-57.6-6.8-83.1-6.5c-4.1 0-7.9 .1-11.2 .1c-3.3 0-7.2 0-11.4-.1c-25.5-.3-64.8-.7-82.9 6.5c-6.9 2.7-13.1 6.8-18.4 12s-9.3 11.5-12 18.4c-7.1 18.1-6.7 57.7-6.5 83.2c0 4.1 .1 7.9 .1 11.1s0 7-.1 11.1c-.2 25.5-.6 65.1 6.5 83.2c2.7 6.9 6.8 13.1 12 18.4s11.5 9.3 18.4 12c18.1 7.1 57.6 6.8 83.1 6.5c4.1 0 7.9-.1 11.2-.1c3.3 0 7.2 0 11.4 .1c25.5 .3 64.8 .7 82.9-6.5c6.9-2.7 13.1-6.8 18.4-12s9.3-11.5 12-18.4c7.2-18 6.8-57.4 6.5-83c0-4.2-.1-8.1-.1-11.4s0-7.1 .1-11.4c.3-25.5 .7-64.9-6.5-83l0 0c-2.7-6.9-6.8-13.1-12-18.4zm-67.1 44.5A82 82 0 1 1 178.4 324.2a82 82 0 1 1 91.1-136.4zm29.2-1.3c-3.1-2.1-5.6-5.1-7.1-8.6s-1.8-7.3-1.1-11.1s2.6-7.1 5.2-9.8s6.1-4.5 9.8-5.2s7.6-.4 11.1 1.1s6.5 3.9 8.6 7s3.2 6.8 3.2 10.6c0 2.5-.5 5-1.4 7.3s-2.4 4.4-4.1 6.2s-3.9 3.2-6.2 4.2s-4.8 1.5-7.3 1.5l0 0c-3.8 0-7.5-1.1-10.6-3.2zM448 96c0-35.3-28.7-64-64-64H64C28.7 32 0 60.7 0 96V416c0 35.3 28.7 64 64 64H384c35.3 0 64-28.7 64-64V96zM357 389c-18.7 18.7-41.4 24.6-67 25.9c-26.4 1.5-105.6 1.5-132 0c-25.6-1.3-48.3-7.2-67-25.9s-24.6-41.4-25.8-67c-1.5-26.4-1.5-105.6 0-132c1.3-25.6 7.1-48.3 25.8-67s41.5-24.6 67-25.8c26.4-1.5 105.6-1.5 132 0c25.6 1.3 48.3 7.1 67 25.8s24.6 41.4 25.8 67c1.5 26.3 1.5 105.4 0 131.9c-1.3 25.6-7.1 48.3-25.8 67z"></path>
      </symbol>

      <symbol xmlns="http://www.w3.org/2000/svg" viewBox="0 0 448 512" id="linkedin">
         <path
            d="M416 32H31.9C14.3 32 0 46.5 0 64.3v383.4C0 465.5 14.3 480 31.9 480H416c17.6 0 32-14.5 32-32.3V64.3c0-17.8-14.4-32.3-32-32.3zM135.4 416H69V202.2h66.5V416zm-33.2-243c-21.3 0-38.5-17.3-38.5-38.5S80.9 96 102.2 96c21.2 0 38.5 17.3 38.5 38.5 0 21.3-17.2 38.5-38.5 38.5zm282.1 243h-66.4V312c0-24.8-.5-56.7-34.5-56.7-34.6 0-39.9 27-39.9 54.9V416h-66.4V202.2h63.7v29.2h.9c8.9-16.8 30.6-34.5 62.9-34.5 67.2 0 79.7 44.3 79.7 101.9V416z"></path>
      </symbol>

      <svg width="0" height="0" class="hidden">
         <symbol xmlns="http://www.w3.org/2000/svg" viewBox="0 0 512 512" id="facebook">
            <path
               d="M512 256C512 114.6 397.4 0 256 0S0 114.6 0 256C0 376 82.7 476.8 194.2 504.5V334.2H141.4V256h52.8V222.3c0-87.1 39.4-127.5 125-127.5c16.2 0 44.2 3.2 55.7 6.4V172c-6-.6-16.5-1-29.6-1c-42 0-58.2 15.9-58.2 57.2V256h83.6l-14.4 78.2H287V510.1C413.8 494.8 512 386.9 512 256h0z"></path>
         </symbol>
      </svg>
   </defs>

</svg>