<svg width="0" height="0" class="hidden">
   <defs>

      <symbol xmlns="http://www.w3.org/2000/svg" viewBox="0 0 24 24" id="create">
         <path
            d="M21 14v5a2 2 0 0 1-2 2H5a2 2 0 0 1-2-2V5a2 2 0 0 1 2-2h5v2H5v14h14v-5z"></path>
         <path d="M21 7h-4V3h-2v4h-4v2h4v4h2V9h4z"></path>
      </symbol>

      <symbol xmlns="http://www.w3.org/2000/svg" viewBox="0 0 24 24"
         id="notification">
         <path
            d="M6.429 2.413a.75.75 0 0 0-1.13-.986l-1.292 1.48a4.75 4.75 0 0 0-1.17 3.024L2.78 8.65a.75.75 0 1 0 1.5.031l.056-2.718a3.25 3.25 0 0 1 .801-2.069z"></path>
         <path fill-rule="evenodd"
            d="M6.237 7.7a4.214 4.214 0 0 1 4.206-3.95H11V3a1 1 0 1 1 2 0v.75h.557a4.214 4.214 0 0 1 4.206 3.95l.221 3.534a7.376 7.376 0 0 0 1.308 3.754a1.617 1.617 0 0 1-1.135 2.529l-3.407.408V19a2.75 2.75 0 1 1-5.5 0v-1.075l-3.407-.409a1.617 1.617 0 0 1-1.135-2.528a7.377 7.377 0 0 0 1.308-3.754zm4.206-2.45a2.714 2.714 0 0 0-2.709 2.544l-.22 3.534a8.877 8.877 0 0 1-1.574 4.516a.117.117 0 0 0 .082.183l3.737.449c1.489.178 2.993.178 4.482 0l3.737-.449a.117.117 0 0 0 .082-.183a8.876 8.876 0 0 1-1.573-4.516l-.221-3.534a2.714 2.714 0 0 0-2.709-2.544zm1.557 15c-.69 0-1.25-.56-1.25-1.25v-.75h2.5V19c0 .69-.56 1.25-1.25 1.25"
            clip-rule="evenodd"></path>
         <path
            d="M17.643 1.355a.75.75 0 0 0-.072 1.058l1.292 1.48a3.25 3.25 0 0 1 .8 2.07l.057 2.717a.75.75 0 0 0 1.5-.031l-.057-2.718a4.75 4.75 0 0 0-1.17-3.024l-1.292-1.48a.75.75 0 0 0-1.058-.072"></path>
      </symbol>

      <symbol xmlns="http://www.w3.org/2000/svg" viewBox="0 0 24 24"
         id="customize">
         <path
            d="M5 20q-.825 0-1.412-.587T3 18V4q0-.825.588-1.412T5 2h14q.825 0 1.413.588T21 4v5.65q-.475-.225-.975-.363T19 9.076V4H5v9h4.2q.225.675.75 1.175t1.175.7q-.075.5-.1 1.013t.05 1.012q-.9-.175-1.687-.663T8 15H5v3h6.325q.175.55.4 1.05t.55.95zm0-2h6.325zm12.025 3l-.3-1.5q-.3-.125-.563-.262t-.537-.338l-1.45.45l-1-1.7l1.15-1q-.05-.3-.05-.65t.05-.65l-1.15-1l1-1.7l1.45.45q.275-.2.538-.337t.562-.263l.3-1.5h2l.3 1.5q.3.125.563.263t.537.337l1.45-.45l1 1.7l-1.15 1q.05.3.05.65t-.05.65l1.15 1l-1 1.7l-1.45-.45q-.275.2-.537.338t-.563.262l-.3 1.5zm1-3q.825 0 1.413-.587T20.025 16q0-.825-.587-1.412T18.025 14q-.825 0-1.412.588T16.025 16q0 .825.588 1.413t1.412.587"></path>
      </symbol>

      <symbol xmlns="http://www.w3.org/2000/svg" viewBox="0 0 24 24" id="hamburger-menu">
         <path fill="none" stroke="currentColor" stroke-linecap="round" stroke-linejoin="round"
            stroke-width="2" d="M5 17h14M5 12h14M5 7h14"></path>
      </symbol>

      <symbol xmlns="http://www.w3.org/2000/svg" viewBox="0 0 384 512" id="close">
         <path
            d="M342.6 150.6c12.5-12.5 12.5-32.8 0-45.3s-32.8-12.5-45.3 0L192 210.7 86.6 105.4c-12.5-12.5-32.8-12.5-45.3 0s-12.5 32.8 0 45.3L146.7 256 41.4 361.4c-12.5 12.5-12.5 32.8 0 45.3s32.8 12.5 45.3 0L192 301.3 297.4 406.6c12.5 12.5 32.8 12.5 45.3 0s12.5-32.8 0-45.3L237.3 256 342.6 150.6z"></path>
      </symbol>

      <symbol xmlns="http://www.w3.org/2000/svg" viewBox="0 0 19 19" id="template">
         <path
            d="M11.5 9.5H17.5M11.5 13.5H17.5M11.5 17.5H17.5M1.5 2.5C1.5 2.23478 1.60536 1.98043 1.79289 1.79289C1.98043 1.60536 2.23478 1.5 2.5 1.5H16.5C16.7652 1.5 17.0196 1.60536 17.2071 1.79289C17.3946 1.98043 17.5 2.23478 17.5 2.5V4.5C17.5 4.76522 17.3946 5.01957 17.2071 5.20711C17.0196 5.39464 16.7652 5.5 16.5 5.5H2.5C2.23478 5.5 1.98043 5.39464 1.79289 5.20711C1.60536 5.01957 1.5 4.76522 1.5 4.5V2.5ZM1.5 10.5C1.5 10.2348 1.60536 9.98043 1.79289 9.79289C1.98043 9.60536 2.23478 9.5 2.5 9.5H6.5C6.76522 9.5 7.01957 9.60536 7.20711 9.79289C7.39464 9.98043 7.5 10.2348 7.5 10.5V16.5C7.5 16.7652 7.39464 17.0196 7.20711 17.2071C7.01957 17.3946 6.76522 17.5 6.5 17.5H2.5C2.23478 17.5 1.98043 17.3946 1.79289 17.2071C1.60536 17.0196 1.5 16.7652 1.5 16.5V10.5Z"
            stroke="white" stroke-width="2" stroke-linecap="round" stroke-linejoin="round"></path>
      </symbol>

      <symbol xmlns="http://www.w3.org/2000/svg" viewBox="0 0 16 16" id="download">
         <path
            d="M8 12L3 7L4.4 5.55L7 8.15V0H9V8.15L11.6 5.55L13 7L8 12ZM2 16C1.45 16 0.979333 15.8043 0.588 15.413C0.196666 15.0217 0.000666667 14.5507 0 14V11H2V14H14V11H16V14C16 14.55 15.8043 15.021 15.413 15.413C15.0217 15.805 14.5507 16.0007 14 16H2Z"
         ></path>
      </symbol>

      <symbol xmlns="http://www.w3.org/2000/svg" viewBox="0 0 448 512" id="instagram">
         <path
            d="M194.4 211.7a53.3 53.3 0 1 0 59.3 88.7 53.3 53.3 0 1 0 -59.3-88.7zm142.3-68.4c-5.2-5.2-11.5-9.3-18.4-12c-18.1-7.1-57.6-6.8-83.1-6.5c-4.1 0-7.9 .1-11.2 .1c-3.3 0-7.2 0-11.4-.1c-25.5-.3-64.8-.7-82.9 6.5c-6.9 2.7-13.1 6.8-18.4 12s-9.3 11.5-12 18.4c-7.1 18.1-6.7 57.7-6.5 83.2c0 4.1 .1 7.9 .1 11.1s0 7-.1 11.1c-.2 25.5-.6 65.1 6.5 83.2c2.7 6.9 6.8 13.1 12 18.4s11.5 9.3 18.4 12c18.1 7.1 57.6 6.8 83.1 6.5c4.1 0 7.9-.1 11.2-.1c3.3 0 7.2 0 11.4 .1c25.5 .3 64.8 .7 82.9-6.5c6.9-2.7 13.1-6.8 18.4-12s9.3-11.5 12-18.4c7.2-18 6.8-57.4 6.5-83c0-4.2-.1-8.1-.1-11.4s0-7.1 .1-11.4c.3-25.5 .7-64.9-6.5-83l0 0c-2.7-6.9-6.8-13.1-12-18.4zm-67.1 44.5A82 82 0 1 1 178.4 324.2a82 82 0 1 1 91.1-136.4zm29.2-1.3c-3.1-2.1-5.6-5.1-7.1-8.6s-1.8-7.3-1.1-11.1s2.6-7.1 5.2-9.8s6.1-4.5 9.8-5.2s7.6-.4 11.1 1.1s6.5 3.9 8.6 7s3.2 6.8 3.2 10.6c0 2.5-.5 5-1.4 7.3s-2.4 4.4-4.1 6.2s-3.9 3.2-6.2 4.2s-4.8 1.5-7.3 1.5l0 0c-3.8 0-7.5-1.1-10.6-3.2zM448 96c0-35.3-28.7-64-64-64H64C28.7 32 0 60.7 0 96V416c0 35.3 28.7 64 64 64H384c35.3 0 64-28.7 64-64V96zM357 389c-18.7 18.7-41.4 24.6-67 25.9c-26.4 1.5-105.6 1.5-132 0c-25.6-1.3-48.3-7.2-67-25.9s-24.6-41.4-25.8-67c-1.5-26.4-1.5-105.6 0-132c1.3-25.6 7.1-48.3 25.8-67s41.5-24.6 67-25.8c26.4-1.5 105.6-1.5 132 0c25.6 1.3 48.3 7.1 67 25.8s24.6 41.4 25.8 67c1.5 26.3 1.5 105.4 0 131.9c-1.3 25.6-7.1 48.3-25.8 67z"></path>
      </symbol>

      <symbol xmlns="http://www.w3.org/2000/svg" viewBox="0 0 448 512" id="linkedin">
         <path
            d="M416 32H31.9C14.3 32 0 46.5 0 64.3v383.4C0 465.5 14.3 480 31.9 480H416c17.6 0 32-14.5 32-32.3V64.3c0-17.8-14.4-32.3-32-32.3zM135.4 416H69V202.2h66.5V416zm-33.2-243c-21.3 0-38.5-17.3-38.5-38.5S80.9 96 102.2 96c21.2 0 38.5 17.3 38.5 38.5 0 21.3-17.2 38.5-38.5 38.5zm282.1 243h-66.4V312c0-24.8-.5-56.7-34.5-56.7-34.6 0-39.9 27-39.9 54.9V416h-66.4V202.2h63.7v29.2h.9c8.9-16.8 30.6-34.5 62.9-34.5 67.2 0 79.7 44.3 79.7 101.9V416z"></path>
      </symbol>

      <symbol xmlns="http://www.w3.org/2000/svg" viewBox="0 0 512 512" id="facebook">
         <path
            d="M512 256C512 114.6 397.4 0 256 0S0 114.6 0 256C0 376 82.7 476.8 194.2 504.5V334.2H141.4V256h52.8V222.3c0-87.1 39.4-127.5 125-127.5c16.2 0 44.2 3.2 55.7 6.4V172c-6-.6-16.5-1-29.6-1c-42 0-58.2 15.9-58.2 57.2V256h83.6l-14.4 78.2H287V510.1C413.8 494.8 512 386.9 512 256h0z"></path>
      </symbol>

      <symbol xmlns="http://www.w3.org/2000/svg" viewBox="0 0 71 48" id="quote">
         <path
            d="M28.8723 0C28.8723 0 18.035 13.8853 23.623 20.4893C29.211 27.0933 35.815 29.6333 30.3963 38.9467C22.2683 52.6627 -1.60766 49.1067 0.0856697 28.448C1.44034 9.31334 28.8723 0 28.8723 0ZM67.4803 0C67.4803 0 56.4737 13.8853 62.231 20.4893C67.819 27.0933 74.2537 29.6333 68.835 38.9467C60.707 52.6627 36.831 49.1067 38.5243 28.448C40.2177 9.31334 67.4803 0 67.4803 0Z"
         ></path>
      </symbol>

      <symbol xmlns="http://www.w3.org/2000/svg" viewBox="0 0 60 40" id="arrow-left">
         <path
            d="M4.05807 19.9974L2.50047 21.555L0.947265 19.9974L2.50047 18.4398L4.05807 19.9974ZM5.61567 18.4398L23.2157 36.0398L20.1005 39.155L2.50047 21.555L5.61567 18.4398ZM2.50047 18.4398L20.1005 0.839844L23.2157 3.95504L5.61567 21.555L2.50047 18.4398ZM4.05807 17.7974L59.0581 17.7974L59.0581 22.1974L4.05807 22.1974L4.05807 17.7974Z"></path>
      </symbol>

      <symbol xmlns="http://www.w3.org/2000/svg" viewBox="0 0 60 40" id="arrow-right">
         <path
            d="M55.9419 19.9974L57.4995 21.555L59.0527 19.9974L57.4995 18.4398L55.9419 19.9974ZM54.3843 18.4398L36.7843 36.0398L39.8995 39.155L57.4995 21.555L54.3843 18.4398ZM57.4995 18.4398L39.8995 0.839844L36.7843 3.95504L54.3843 21.555L57.4995 18.4398ZM55.9419 17.7974L0.941933 17.7974L0.941933 22.1974L55.9419 22.1974L55.9419 17.7974Z"
         ></path>
      </symbol>

      <symbol fill="none" xmlns="http://www.w3.org/2000/svg" viewBox="0 0 20 20" id="grid-2">
         <path
            d="M11.6667 12.0833V16.25C11.6667 16.9404 12.2263 17.5 12.9167 17.5H16.25C16.9404 17.5 17.5 16.9404 17.5 16.25V12.0833C17.5 11.393 16.9404 10.8333 16.25 10.8333H12.9167C12.2263 10.8333 11.6667 11.393 11.6667 12.0833Z"
            fill="#4263EB"></path>
         <path
            d="M2.5 12.0833L2.5 16.25C2.5 16.9404 3.05964 17.5 3.75 17.5H7.08333C7.77369 17.5 8.33333 16.9404 8.33333 16.25V12.0833C8.33333 11.393 7.77369 10.8333 7.08333 10.8333H3.75C3.05964 10.8333 2.5 11.393 2.5 12.0833Z"
            fill="#4263EB"></path>
         <path
            d="M2.5 3.75L2.5 7.08333C2.5 7.77369 3.05964 8.33333 3.75 8.33333L16.25 8.33333C16.9404 8.33333 17.5 7.77369 17.5 7.08333V3.75C17.5 3.05964 16.9404 2.5 16.25 2.5L3.75 2.5C3.05964 2.5 2.5 3.05964 2.5 3.75Z"
            fill="#4263EB"></path>
      </symbol>

      <symbol xmlns="http://www.w3.org/2000/svg" viewBox="0 0 512 512" id="settings">
         <path
            d="M495.9 166.6c3.2 8.7 .5 18.4-6.4 24.6l-43.3 39.4c1.1 8.3 1.7 16.8 1.7 25.4s-.6 17.1-1.7 25.4l43.3 39.4c6.9 6.2 9.6 15.9 6.4 24.6c-4.4 11.9-9.7 23.3-15.8 34.3l-4.7 8.1c-6.6 11-14 21.4-22.1 31.2c-5.9 7.2-15.7 9.6-24.5 6.8l-55.7-17.7c-13.4 10.3-28.2 18.9-44 25.4l-12.5 57.1c-2 9.1-9 16.3-18.2 17.8c-13.8 2.3-28 3.5-42.5 3.5s-28.7-1.2-42.5-3.5c-9.2-1.5-16.2-8.7-18.2-17.8l-12.5-57.1c-15.8-6.5-30.6-15.1-44-25.4L83.1 425.9c-8.8 2.8-18.6 .3-24.5-6.8c-8.1-9.8-15.5-20.2-22.1-31.2l-4.7-8.1c-6.1-11-11.4-22.4-15.8-34.3c-3.2-8.7-.5-18.4 6.4-24.6l43.3-39.4C64.6 273.1 64 264.6 64 256s.6-17.1 1.7-25.4L22.4 191.2c-6.9-6.2-9.6-15.9-6.4-24.6c4.4-11.9 9.7-23.3 15.8-34.3l4.7-8.1c6.6-11 14-21.4 22.1-31.2c5.9-7.2 15.7-9.6 24.5-6.8l55.7 17.7c13.4-10.3 28.2-18.9 44-25.4l12.5-57.1c2-9.1 9-16.3 18.2-17.8C227.3 1.2 241.5 0 256 0s28.7 1.2 42.5 3.5c9.2 1.5 16.2 8.7 18.2 17.8l12.5 57.1c15.8 6.5 30.6 15.1 44 25.4l55.7-17.7c8.8-2.8 18.6-.3 24.5 6.8c8.1 9.8 15.5 20.2 22.1 31.2l4.7 8.1c6.1 11 11.4 22.4 15.8 34.3zM256 336a80 80 0 1 0 0-160 80 80 0 1 0 0 160z"></path>
      </symbol>

      <symbol xmlns="http://www.w3.org/2000/svg" fill="currentColor" viewBox="0 0 16 16"
         id="layout">
         <path
            d="M0 1a1 1 0 0 1 1-1h5a1 1 0 0 1 1 1v14a1 1 0 0 1-1 1H1a1 1 0 0 1-1-1zm9 0a1 1 0 0 1 1-1h5a1 1 0 0 1 1 1v5a1 1 0 0 1-1 1h-5a1 1 0 0 1-1-1zm0 9a1 1 0 0 1 1-1h5a1 1 0 0 1 1 1v5a1 1 0 0 1-1 1h-5a1 1 0 0 1-1-1z"></path>
      </symbol>

      <symbol xmlns="http://www.w3.org/2000/svg" viewBox="0 0 384 512" id="invoice">
         <path
            d="M14 2.2C22.5-1.7 32.5-.3 39.6 5.8L80 40.4 120.4 5.8c9-7.7 22.3-7.7 31.2 0L192 40.4 232.4 5.8c9-7.7 22.3-7.7 31.2 0L304 40.4 344.4 5.8c7.1-6.1 17.1-7.5 25.6-3.6s14 12.4 14 21.8V488c0 9.4-5.5 17.9-14 21.8s-18.5 2.5-25.6-3.6L304 471.6l-40.4 34.6c-9 7.7-22.3 7.7-31.2 0L192 471.6l-40.4 34.6c-9 7.7-22.3 7.7-31.2 0L80 471.6 39.6 506.2c-7.1 6.1-17.1 7.5-25.6 3.6S0 497.4 0 488V24C0 14.6 5.5 6.1 14 2.2zM96 144c-8.8 0-16 7.2-16 16s7.2 16 16 16H288c8.8 0 16-7.2 16-16s-7.2-16-16-16H96zM80 352c0 8.8 7.2 16 16 16H288c8.8 0 16-7.2 16-16s-7.2-16-16-16H96c-8.8 0-16 7.2-16 16zM96 240c-8.8 0-16 7.2-16 16s7.2 16 16 16H288c8.8 0 16-7.2 16-16s-7.2-16-16-16H96z"></path>
      </symbol>

      <symbol xmlns="http://www.w3.org/2000/svg" fill="currentColor" viewBox="0 0 16 16"
         id="people">
         <path
            d="M7 14s-1 0-1-1 1-4 5-4 5 3 5 4-1 1-1 1zm4-6a3 3 0 1 0 0-6 3 3 0 0 0 0 6m-5.784 6A2.24 2.24 0 0 1 5 13c0-1.355.68-2.75 1.936-3.72A6.3 6.3 0 0 0 5 9c-4 0-5 3-5 4s1 1 1 1zM4.5 8a2.5 2.5 0 1 0 0-5 2.5 2.5 0 0 0 0 5"></path>
      </symbol>

      <symbol xmlns="http://www.w3.org/2000/svg" fill="currentColor" viewBox="0 0 16 16"
         id="bell">
         <path
            d="M8 16a2 2 0 0 0 2-2H6a2 2 0 0 0 2 2M8 1.918l-.797.161A4 4 0 0 0 4 6c0 .628-.134 2.197-.459 3.742-.16.767-.376 1.566-.663 2.258h10.244c-.287-.692-.502-1.49-.663-2.258C12.134 8.197 12 6.628 12 6a4 4 0 0 0-3.203-3.92zM14.22 12c.223.447.481.801.78 1H1c.299-.199.557-.553.78-1C2.68 10.2 3 6.88 3 6c0-2.42 1.72-4.44 4.005-4.901a1 1 0 1 1 1.99 0A5 5 0 0 1 13 6c0 .88.32 4.2 1.22 6"></path>
      </symbol>

      <symbol xmlns="http://www.w3.org/2000/svg" viewBox="0 0 512 512"
         id="search">
         <path
            d="M416 208c0 45.9-14.9 88.3-40 122.7L502.6 457.4c12.5 12.5 12.5 32.8 0 45.3s-32.8 12.5-45.3 0L330.7 376c-34.4 25.2-76.8 40-122.7 40C93.1 416 0 322.9 0 208S93.1 0 208 0S416 93.1 416 208zM208 352a144 144 0 1 0 0-288 144 144 0 1 0 0 288z"></path>
      </symbol>

      <symbol xmlns="http://www.w3.org/2000/svg" viewBox="0 0 448 512" id="plus">
         <path
            d="M256 80c0-17.7-14.3-32-32-32s-32 14.3-32 32l0 144L48 224c-17.7 0-32 14.3-32 32s14.3 32 32 32l144 0 0 144c0 17.7 14.3 32 32 32s32-14.3 32-32l0-144 144 0c17.7 0 32-14.3 32-32s-14.3-32-32-32l-144 0 0-144z"></path>
      </symbol>

      <symbol xmlns="http://www.w3.org/2000/svg" viewBox="0 0 384 512" id="invoice">
         <path
            d="M14 2.2C22.5-1.7 32.5-.3 39.6 5.8L80 40.4 120.4 5.8c9-7.7 22.3-7.7 31.2 0L192 40.4 232.4 5.8c9-7.7 22.3-7.7 31.2 0L304 40.4 344.4 5.8c7.1-6.1 17.1-7.5 25.6-3.6s14 12.4 14 21.8l0 464c0 9.4-5.5 17.9-14 21.8s-18.5 2.5-25.6-3.6L304 471.6l-40.4 34.6c-9 7.7-22.3 7.7-31.2 0L192 471.6l-40.4 34.6c-9 7.7-22.3 7.7-31.2 0L80 471.6 39.6 506.2c-7.1 6.1-17.1 7.5-25.6 3.6S0 497.4 0 488L0 24C0 14.6 5.5 6.1 14 2.2zM96 144c-8.8 0-16 7.2-16 16s7.2 16 16 16l192 0c8.8 0 16-7.2 16-16s-7.2-16-16-16L96 144zM80 352c0 8.8 7.2 16 16 16l192 0c8.8 0 16-7.2 16-16s-7.2-16-16-16L96 336c-8.8 0-16 7.2-16 16zM96 240c-8.8 0-16 7.2-16 16s7.2 16 16 16l192 0c8.8 0 16-7.2 16-16s-7.2-16-16-16L96 240z"></path>
      </symbol>

      <symbol xmlns="http://www.w3.org/2000/svg" viewBox="0 0 576 512"
         id="money-bill">
         <path
            d="M0 112.5L0 422.3c0 18 10.1 35 27 41.3c87 32.5 174 10.3 261-11.9c79.8-20.3 159.6-40.7 239.3-18.9c23 6.3 48.7-9.5 48.7-33.4l0-309.9c0-18-10.1-35-27-41.3C462 15.9 375 38.1 288 60.3C208.2 80.6 128.4 100.9 48.7 79.1C25.6 72.8 0 88.6 0 112.5zM128 416l-64 0 0-64c35.3 0 64 28.7 64 64zM64 224l0-64 64 0c0 35.3-28.7 64-64 64zM448 352c0-35.3 28.7-64 64-64l0 64-64 0zm64-192c-35.3 0-64-28.7-64-64l64 0 0 64zM384 256c0 61.9-43 112-96 112s-96-50.1-96-112s43-112 96-112s96 50.1 96 112zM252 208c0 9.7 6.9 17.7 16 19.6l0 48.4-4 0c-11 0-20 9-20 20s9 20 20 20l24 0 24 0c11 0 20-9 20-20s-9-20-20-20l-4 0 0-68c0-11-9-20-20-20l-16 0c-11 0-20 9-20 20z"></path>
      </symbol>

      <symbol xmlns="http://www.w3.org/2000/svg" viewBox="0 0 512 512" id="clock">
         <path
            d="M464 256A208 208 0 1 1 48 256a208 208 0 1 1 416 0zM0 256a256 256 0 1 0 512 0A256 256 0 1 0 0 256zM232 120l0 136c0 8 4 15.5 10.7 20l96 64c11 7.4 25.9 4.4 33.3-6.7s4.4-25.9-6.7-33.3L280 243.2 280 120c0-13.3-10.7-24-24-24s-24 10.7-24 24z"></path>
      </symbol>

      <symbol fill="none" xmlns="http://www.w3.org/2000/svg" viewBox="0 0 25 24"
         id="chart-breakout-square">
         <path
            d="M11.332 3H8.13203C6.45187 3 5.61179 3 4.97006 3.32698C4.40557 3.6146 3.94663 4.07354 3.65901 4.63803C3.33203 5.27976 3.33203 6.11984 3.33203 7.8V16.2C3.33203 17.8802 3.33203 18.7202 3.65901 19.362C3.94663 19.9265 4.40557 20.3854 4.97006 20.673C5.61179 21 6.45187 21 8.13203 21H16.532C18.2122 21 19.0523 21 19.694 20.673C20.2585 20.3854 20.7174 19.9265 21.0051 19.362C21.332 18.7202 21.332 17.8802 21.332 16.2V13M12.332 8H16.332V12M15.832 3.5V2M19.7714 4.56066L20.832 3.5M20.8423 8.5H22.3423M3.33203 13.3471C3.98397 13.4478 4.6519 13.5 5.33203 13.5C9.71839 13.5 13.5974 11.3276 15.9517 8"
            stroke="currentColor" stroke-width="2" stroke-linecap="round" stroke-linejoin="round"></path>
      </symbol>

      <symbol xmlns="http://www.w3.org/2000/svg" viewBox="0 0 19 19" id="line-chart">
         <path fill-rule="evenodd" clip-rule="evenodd"
            d="M4.08301 3.50003H14.583C15.8256 3.50003 16.833 4.50739 16.833 5.75003V13.25C16.833 14.4927 15.8256 15.5 14.583 15.5H4.08301C2.84037 15.5 1.83301 14.4927 1.83301 13.25V5.75003C1.83301 4.50739 2.84037 3.50003 4.08301 3.50003ZM4.30268 11.7198C4.00978 12.0127 4.00978 12.4875 4.30268 12.7804C4.59557 13.0733 5.07044 13.0733 5.36334 12.7804L7.88383 10.2599L8.85861 11.056C9.1649 11.3061 9.6128 11.2755 9.88215 10.9859L12.3351 8.34896L13.2859 9.36306C13.5692 9.66524 14.0438 9.68055 14.346 9.39725C14.6481 9.11395 14.6635 8.63933 14.3802 8.33714L12.8802 6.73714C12.738 6.58554 12.5394 6.4997 12.3316 6.5001C12.1237 6.5005 11.9254 6.58711 11.7839 6.73927L9.26279 9.44943L8.30741 8.6692C8.00917 8.42564 7.57495 8.4475 7.30268 8.71977L4.30268 11.7198Z"
         ></path>
      </symbol>


   </defs>

</svg>