<svg width="0" height="0" class="hidden">
   <defs>

      <symbol xmlns="http://www.w3.org/2000/svg" viewBox="0 0 24 24" id="create">
         <path
            d="M21 14v5a2 2 0 0 1-2 2H5a2 2 0 0 1-2-2V5a2 2 0 0 1 2-2h5v2H5v14h14v-5z"></path>
         <path fill="currentColor" d="M21 7h-4V3h-2v4h-4v2h4v4h2V9h4z"></path>
      </symbol>

      <symbol xmlns="http://www.w3.org/2000/svg" viewBox="0 0 24 24"
         id="notification">
         <path fill="currentColor"
            d="M6.429 2.413a.75.75 0 0 0-1.13-.986l-1.292 1.48a4.75 4.75 0 0 0-1.17 3.024L2.78 8.65a.75.75 0 1 0 1.5.031l.056-2.718a3.25 3.25 0 0 1 .801-2.069z"></path>
         <path fill="currentColor" fill-rule="evenodd"
            d="M6.237 7.7a4.214 4.214 0 0 1 4.206-3.95H11V3a1 1 0 1 1 2 0v.75h.557a4.214 4.214 0 0 1 4.206 3.95l.221 3.534a7.376 7.376 0 0 0 1.308 3.754a1.617 1.617 0 0 1-1.135 2.529l-3.407.408V19a2.75 2.75 0 1 1-5.5 0v-1.075l-3.407-.409a1.617 1.617 0 0 1-1.135-2.528a7.377 7.377 0 0 0 1.308-3.754zm4.206-2.45a2.714 2.714 0 0 0-2.709 2.544l-.22 3.534a8.877 8.877 0 0 1-1.574 4.516a.117.117 0 0 0 .082.183l3.737.449c1.489.178 2.993.178 4.482 0l3.737-.449a.117.117 0 0 0 .082-.183a8.876 8.876 0 0 1-1.573-4.516l-.221-3.534a2.714 2.714 0 0 0-2.709-2.544zm1.557 15c-.69 0-1.25-.56-1.25-1.25v-.75h2.5V19c0 .69-.56 1.25-1.25 1.25"
            clip-rule="evenodd"></path>
         <path fill="currentColor"
            d="M17.643 1.355a.75.75 0 0 0-.072 1.058l1.292 1.48a3.25 3.25 0 0 1 .8 2.07l.057 2.717a.75.75 0 0 0 1.5-.031l-.057-2.718a4.75 4.75 0 0 0-1.17-3.024l-1.292-1.48a.75.75 0 0 0-1.058-.072"></path>
      </symbol>

      <symbol xmlns="http://www.w3.org/2000/svg" viewBox="0 0 24 24"
         id="customize">
         <path fill="currentColor"
            d="M5 20q-.825 0-1.412-.587T3 18V4q0-.825.588-1.412T5 2h14q.825 0 1.413.588T21 4v5.65q-.475-.225-.975-.363T19 9.076V4H5v9h4.2q.225.675.75 1.175t1.175.7q-.075.5-.1 1.013t.05 1.012q-.9-.175-1.687-.663T8 15H5v3h6.325q.175.55.4 1.05t.55.95zm0-2h6.325zm12.025 3l-.3-1.5q-.3-.125-.563-.262t-.537-.338l-1.45.45l-1-1.7l1.15-1q-.05-.3-.05-.65t.05-.65l-1.15-1l1-1.7l1.45.45q.275-.2.538-.337t.562-.263l.3-1.5h2l.3 1.5q.3.125.563.263t.537.337l1.45-.45l1 1.7l-1.15 1q.05.3.05.65t-.05.65l1.15 1l-1 1.7l-1.45-.45q-.275.2-.537.338t-.563.262l-.3 1.5zm1-3q.825 0 1.413-.587T20.025 16q0-.825-.587-1.412T18.025 14q-.825 0-1.412.588T16.025 16q0 .825.588 1.413t1.412.587"></path>
      </symbol>

      <symbol xmlns="http://www.w3.org/2000/svg" viewBox="0 0 448 512" id="bell">
         <path
            d="M224 0c-17.7 0-32 14.3-32 32V51.2C119 66 64 130.6 64 208v25.4c0 45.4-15.5 89.5-43.8 124.9L5.3 377c-5.8 7.2-6.9 17.1-2.9 25.4S14.8 416 24 416H424c9.2 0 17.6-5.3 21.6-13.6s2.9-18.2-2.9-25.4l-14.9-18.6C399.5 322.9 384 278.8 384 233.4V208c0-77.4-55-142-128-156.8V32c0-17.7-14.3-32-32-32zm0 96c61.9 0 112 50.1 112 112v25.4c0 47.9 13.9 94.6 39.7 134.6H72.3C98.1 328 112 281.3 112 233.4V208c0-61.9 50.1-112 112-112zm64 352H224 160c0 17 6.7 33.3 18.7 45.3s28.3 18.7 45.3 18.7s33.3-6.7 45.3-18.7s18.7-28.3 18.7-45.3z"
            fill='red'></path>
      </symbol>

      <symbol xmlns="http://www.w3.org/2000/svg" viewBox="0 0 24 24" id="hamburger-menu">
         <path fill="none" stroke="currentColor" stroke-linecap="round" stroke-linejoin="round"
            stroke-width="2" d="M5 17h14M5 12h14M5 7h14"></path>
      </symbol>

      <symbol xmlns="http://www.w3.org/2000/svg" viewBox="0 0 384 512" id="close">
         <path
            d="M342.6 150.6c12.5-12.5 12.5-32.8 0-45.3s-32.8-12.5-45.3 0L192 210.7 86.6 105.4c-12.5-12.5-32.8-12.5-45.3 0s-12.5 32.8 0 45.3L146.7 256 41.4 361.4c-12.5 12.5-12.5 32.8 0 45.3s32.8 12.5 45.3 0L192 301.3 297.4 406.6c12.5 12.5 32.8 12.5 45.3 0s12.5-32.8 0-45.3L237.3 256 342.6 150.6z"></path>
      </symbol>
   </defs>

</svg>